<svg width="32" height="32" viewBox="0 0 32 32" fill="none" xmlns="http://www.w3.org/2000/svg">
<rect width="32" height="32" fill="white"/>
<path fill-rule="evenodd" clip-rule="evenodd" d="M29.0001 15.5C29.0001 17.8199 28.5125 20.0128 27.6452 21.9583H16.7803C18.7865 18.9133 20.8536 15.226 20.8536 11.4635C20.8536 6.6217 17.5448 2.54568 13.0457 1.33477C13.9844 1.09526 14.9618 0.96875 15.9656 0.96875C23.1644 0.96875 29.0001 7.47461 29.0001 15.5ZM17.5949 11.4635C17.5949 7.45085 14.3123 4.19792 10.263 4.19792C4.84506 4.19792 2.93115 11.0656 2.93115 15.5C2.93115 23.5254 8.76688 30.0312 15.9656 30.0312C19.826 30.0312 23.2944 28.1603 25.6811 25.1875H10.263C10.5497 24.8254 10.8498 24.4522 11.1581 24.0688C14.0232 20.5062 17.5949 16.0649 17.5949 11.4635Z" fill="#7859CF"/>
</svg>
